<?xml version="1.0" encoding="utf-8"?>
<!-- Generator: Adobe Illustrator 22.0.0, SVG Export Plug-In . SVG Version: 6.00 Build 0)  -->
<svg version="1.1" id="Layer_1" xmlns="http://www.w3.org/2000/svg" xmlns:xlink="http://www.w3.org/1999/xlink" x="0px" y="0px"
	 viewBox="0 0 360 144" style="enable-background:new 0 0 360 144;" xml:space="preserve">
<style type="text/css">
	.st0{fill:#231F20;}
</style>
<g>
	<g>
		<path class="st0" d="M53.5,52.6c0-0.3,0.3-0.6,0.6-0.6h7.2c3.9,0,6.7,2.6,6.7,6c0,2.5-1.9,4.3-3.4,5.1c1.7,0.7,4,2.3,4,5.3
			c0,3.6-3,6.2-7,6.2h-7.6c-0.4,0-0.6-0.3-0.6-0.6V52.6z M61.6,71.6c2,0,3.5-1.5,3.5-3.5c0-2-1.9-3.4-4-3.4h-4.4v6.9H61.6z
			 M61.1,61.8c2.1,0,3.3-1.5,3.3-3.5c0-2-1.3-3.3-3.3-3.3h-4.4v6.8H61.1z"/>
		<path class="st0" d="M74.7,73.8L84.6,52c0.1-0.2,0.4-0.4,0.5-0.4h0.3c0.2,0,0.4,0.2,0.5,0.4l9.8,21.7c0.2,0.4-0.1,0.8-0.5,0.8h-2
			c-0.4,0-0.6-0.2-0.7-0.5l-2-4.4H80c-0.6,1.5-1.3,2.9-2,4.4c-0.1,0.2-0.3,0.5-0.7,0.5h-2C74.7,74.6,74.5,74.2,74.7,73.8z
			 M89.3,66.9l-4-8.8h-0.2l-3.9,8.8H89.3z"/>
		<path class="st0" d="M103.2,52.6c0-0.3,0.3-0.6,0.6-0.6h8.8c3.9,0,7,3.1,7,6.9c0,3-2,5.4-4.8,6.6l4.4,8.2c0.2,0.4,0,0.9-0.5,0.9
			h-2.5c-0.3,0-0.5-0.2-0.5-0.3l-4.3-8.6h-4.9V74c0,0.3-0.3,0.6-0.6,0.6h-2.1c-0.3,0-0.6-0.3-0.6-0.6V52.6z M112.4,63
			c2.1,0,3.9-1.8,3.9-4c0-2.1-1.8-3.8-3.9-3.8h-5.7V63H112.4z"/>
		<path class="st0" d="M128.9,52.6c0-0.3,0.3-0.6,0.6-0.6h12.9c0.4,0,0.6,0.3,0.6,0.6v1.8c0,0.3-0.3,0.6-0.6,0.6h-10.2v6.6h8.6
			c0.3,0,0.6,0.3,0.6,0.6V64c0,0.4-0.3,0.6-0.6,0.6h-8.6v6.9h10.2c0.4,0,0.6,0.3,0.6,0.6V74c0,0.3-0.3,0.6-0.6,0.6h-12.9
			c-0.4,0-0.6-0.3-0.6-0.6V52.6z"/>
		<path class="st0" d="M152,52.6c0-0.3,0.3-0.6,0.6-0.6h12.9c0.3,0,0.6,0.3,0.6,0.6v1.8c0,0.3-0.3,0.6-0.6,0.6h-10.2v6.6h8.6
			c0.3,0,0.6,0.3,0.6,0.6V64c0,0.4-0.3,0.6-0.6,0.6h-8.6v6.9h10.2c0.3,0,0.6,0.3,0.6,0.6V74c0,0.3-0.3,0.6-0.6,0.6h-12.9
			c-0.4,0-0.6-0.3-0.6-0.6V52.6z"/>
		<path class="st0" d="M172.9,73.4l10.6-18.2v-0.1h-9.1c-0.3,0-0.6-0.3-0.6-0.6v-1.9c0-0.3,0.3-0.6,0.6-0.6h13.3
			c0.3,0,0.6,0.3,0.6,0.6V53l-10.7,18.5v0h9.4c0.4,0,0.6,0.3,0.6,0.6V74c0,0.3-0.3,0.6-0.6,0.6h-13.6c-0.3,0-0.6-0.3-0.6-0.6V73.4z"
			/>
		<path class="st0" d="M196.6,52.6c0-0.3,0.3-0.6,0.6-0.6h12.9c0.4,0,0.6,0.3,0.6,0.6v1.8c0,0.3-0.3,0.6-0.6,0.6H200v6.6h8.6
			c0.3,0,0.6,0.3,0.6,0.6V64c0,0.4-0.3,0.6-0.6,0.6H200v6.9h10.2c0.4,0,0.6,0.3,0.6,0.6V74c0,0.3-0.3,0.6-0.6,0.6h-12.9
			c-0.4,0-0.6-0.3-0.6-0.6V52.6z M200.6,49.5l-0.5-0.9c-0.1-0.3,0-0.5,0.2-0.6l5.1-2.9c0.2-0.1,0.7-0.2,0.8,0.1l0.7,1.4
			c0.2,0.3,0.1,0.6-0.2,0.8l-5.4,2.3C201,49.8,200.8,49.7,200.6,49.5z"/>
		<path class="st0" d="M233.5,52.2c0.1-0.3,0.3-0.5,0.6-0.5h0.5c0.2,0,0.5,0.2,0.5,0.4l6.7,16.5h0.1l6.7-16.5
			c0.1-0.2,0.3-0.4,0.5-0.4h0.5c0.3,0,0.5,0.2,0.6,0.5l4,21.7c0.1,0.5-0.1,0.7-0.6,0.7h-2.1c-0.3,0-0.5-0.2-0.6-0.5l-2.4-14.4
			c0,0-0.1,0-0.1,0l-5.8,14.8c-0.1,0.2-0.3,0.4-0.6,0.4h-0.6c-0.3,0-0.5-0.2-0.5-0.4l-5.8-14.8c0,0-0.1,0-0.1,0l-2.3,14.4
			c0,0.2-0.3,0.5-0.6,0.5h-2.1c-0.4,0-0.7-0.3-0.6-0.7L233.5,52.2z"/>
		<path class="st0" d="M260.2,73.8l9.9-21.7c0.1-0.2,0.4-0.4,0.5-0.4h0.3c0.2,0,0.5,0.2,0.5,0.4l9.8,21.7c0.2,0.4-0.1,0.8-0.5,0.8
			h-2c-0.4,0-0.6-0.2-0.7-0.5l-2-4.4h-10.5c-0.6,1.5-1.3,2.9-2,4.4c-0.1,0.2-0.4,0.5-0.7,0.5h-2C260.3,74.6,260.1,74.2,260.2,73.8z
			 M274.9,66.9l-4-8.8h-0.2l-3.9,8.8H274.9z"/>
		<path class="st0" d="M288.8,52.3c0-0.3,0.3-0.6,0.6-0.6h0.8l14,16.2h0V52.6c0-0.3,0.3-0.6,0.6-0.6h2.1c0.3,0,0.6,0.3,0.6,0.6v21.7
			c0,0.3-0.3,0.6-0.6,0.6h-0.8l-14-16.6h0V74c0,0.3-0.3,0.6-0.6,0.6h-2c-0.3,0-0.6-0.3-0.6-0.6V52.3z"/>
	</g>
	<g>
		<path class="st0" d="M134.7,87.4c0-0.2,0.1-0.3,0.3-0.3h1.6c0.2,0,0.3,0.2,0.3,0.3V97h4.4c0.2,0,0.3,0.2,0.3,0.3v1.4
			c0,0.2-0.1,0.3-0.3,0.3H135c-0.2,0-0.3-0.2-0.3-0.3V87.4z"/>
		<path class="st0" d="M147.2,98.6l5.3-11.5c0.1-0.1,0.1-0.2,0.3-0.2h0.2c0.2,0,0.2,0.1,0.3,0.2l5.3,11.5c0.1,0.2,0,0.4-0.3,0.4
			h-1.5c-0.3,0-0.4-0.1-0.5-0.3l-0.8-1.9h-5.1l-0.8,1.9c-0.1,0.2-0.2,0.3-0.5,0.3h-1.5C147.3,99.1,147.1,98.9,147.2,98.6z M154.6,95
			l-1.7-3.8h-0.1l-1.7,3.8H154.6z"/>
		<path class="st0" d="M165,87.4c0-0.2,0.2-0.3,0.3-0.3h1.6c0.2,0,0.3,0.2,0.3,0.3V92h5.6v-4.5c0-0.2,0.1-0.3,0.3-0.3h1.6
			c0.2,0,0.3,0.2,0.3,0.3v11.4c0,0.2-0.2,0.3-0.3,0.3h-1.6c-0.2,0-0.3-0.2-0.3-0.3V94h-5.6v4.7c0,0.2-0.1,0.3-0.3,0.3h-1.6
			c-0.2,0-0.3-0.2-0.3-0.3V87.4z"/>
		<path class="st0" d="M188.4,86.9c3.4,0,6.2,2.8,6.2,6.2c0,3.4-2.7,6.2-6.2,6.2c-3.4,0-6.2-2.7-6.2-6.2
			C182.3,89.7,185,86.9,188.4,86.9z M188.4,97c2.2,0,3.9-1.8,3.9-3.9c0-2.2-1.8-4-3.9-4c-2.2,0-3.9,1.8-3.9,4
			C184.5,95.3,186.3,97,188.4,97z"/>
		<path class="st0" d="M201.8,87.4c0-0.2,0.1-0.3,0.3-0.3h4.9c2.1,0,3.7,1.6,3.7,3.7c0,1.6-1,2.9-2.5,3.5l2.3,4.4
			c0.1,0.2,0,0.5-0.3,0.5h-1.8c-0.2,0-0.2-0.1-0.3-0.2l-2.3-4.5H204v4.4c0,0.2-0.2,0.3-0.3,0.3h-1.6c-0.2,0-0.3-0.2-0.3-0.3V87.4z
			 M206.8,92.6c0.9,0,1.7-0.8,1.7-1.8c0-0.9-0.8-1.7-1.7-1.7H204v3.4H206.8z"/>
		<path class="st0" d="M218.1,87.4c0-0.2,0.1-0.3,0.3-0.3h7c0.2,0,0.3,0.2,0.3,0.3v1.4c0,0.2-0.1,0.3-0.3,0.3h-5.1V92h4.2
			c0.2,0,0.3,0.2,0.3,0.3v1.4c0,0.2-0.2,0.3-0.3,0.3h-4.2v3h5.1c0.2,0,0.3,0.2,0.3,0.3v1.4c0,0.2-0.1,0.3-0.3,0.3h-7
			c-0.2,0-0.3-0.2-0.3-0.3V87.4z"/>
	</g>
</g>
</svg>
